# xmcd
#
# Track frame offsets:
#	150
#	16100
#	48895
#	64041
#	86845
#	109274
#	120973
#
# Disc length: 2309 seconds
#
# Revision: 0
# Processed by: cddbd v1.5.2PL0 Copyright (c) Steve Scherf et al.
# Submitted via: EZCDAudioConverter 1.3.4.1
#
DISCID=4d090307
DTITLE=Affinity - Affinity (1970)
DYEAR=1900
DGENRE=
TTITLE0=I Am And So Are You
TTITLE1=Night Flight
TTITLE2=I Wonder If I'll Care As Much
TTITLE3=Mr. Joy
TTITLE4=Three Sisters
TTITLE5=Cocoanut Grove
TTITLE6=All Along The Watchtower
EXTD=
EXTT0=
EXTT1=
EXTT2=
EXTT3=
EXTT4=
EXTT5=
EXTT6=
PLAYORDER=
